<svg id="Layer_1" data-name="Layer 1" xmlns="http://www.w3.org/2000/svg" width="231.52" height="70.98" viewBox="0 0 231.52 70.98"><defs><style>.cls-1{fill:maroon;}.cls-2{fill:#808285;}</style></defs><rect class="cls-1" x="52.66" y="9.76" width="1.33" height="51.46"/><rect class="cls-2" x="55.76" width="1.33" height="70.98"/><rect class="cls-1" x="58.87" y="9.76" width="1.33" height="51.46"/><polygon class="cls-2" points="0 37.85 15.3 53.14 15.3 53.14 15.3 53.14 15.42 53.26 15.53 53.14 15.53 53.14 15.53 53.14 19.37 49.31 0 29.94 0 37.85"/><polygon class="cls-1" points="22.94 37.83 0 14.89 0 22.8 18.99 41.78 22.94 45.73 26.9 41.79 45.97 22.71 45.97 14.8 22.94 37.83"/><polygon class="cls-2" points="11.23 56.18 0 56.18 0 44.95 11.23 56.18"/><polygon class="cls-1" points="27.57 56.18 40.38 43.37 40.38 56.18 45.97 56.18 45.97 29.88 19.66 56.18 27.57 56.18"/><path class="cls-2" d="M73.6,46.86c0-.16.09-.25.17-.25s.13,0,.26.3l2.66,5.5,2.65-5.57c.08-.15.13-.23.22-.23s.15.1.17.3l.89,6c.09.61.19.9.48,1a2.14,2.14,0,0,0,.61.09c.08,0,.15,0,.15.07s-.12.11-.25.11-1.59,0-2-.06c-.23,0-.29,0-.29-.11s0-.08.11-.1.09-.15,0-.42l-.58-4.3h0l-2.13,4.43c-.22.46-.27.55-.36.55s-.19-.2-.34-.49c-.24-.45-1-1.94-1.12-2.21s-.68-1.44-1-2.17h0l-.5,3.88a3.93,3.93,0,0,0,0,.46.3.3,0,0,0,.29.31A1.79,1.79,0,0,0,74,54c.08,0,.14,0,.14.07s-.08.11-.23.11c-.41,0-.85,0-1,0l-1,0c-.1,0-.18,0-.18-.11s.06-.07.16-.07a1.17,1.17,0,0,0,.29,0c.28-.05.35-.44.4-.77Z" transform="translate(-6.5 -1.95)"/><path class="cls-2" d="M83.9,51.65c-.05,0-.07,0-.09.08l-.52,1.4a1.79,1.79,0,0,0-.15.59c0,.18.09.3.39.3h.15c.11,0,.14,0,.14.08s0,.1-.16.1l-1,0c-.1,0-.64,0-1.15,0-.12,0-.18,0-.18-.1s0-.08.12-.08l.3,0c.45-.06.63-.39.83-.87L85,47c.12-.28.18-.39.28-.39s.14.09.24.31c.24.54,1.8,4.52,2.42,6,.37.88.65,1,.86,1.06a2.1,2.1,0,0,0,.41,0c.08,0,.13,0,.13.08s-.09.1-.45.1-1.07,0-1.85,0c-.17,0-.29,0-.29-.08s0-.08.14-.09a.16.16,0,0,0,.09-.22l-.79-2.07a.08.08,0,0,0-.09-.07Zm2-.49s.06,0,0,0l-.88-2.41s0-.09,0-.09-.05,0-.05.09l-.9,2.4s0,.06,0,.06Z" transform="translate(-6.5 -1.95)"/><path class="cls-2" d="M89.71,54.08c-.16-.07-.19-.12-.19-.33,0-.54,0-1.12,0-1.28s0-.25.12-.25.1.09.1.16a1.92,1.92,0,0,0,.08.5,1.36,1.36,0,0,0,1.4,1,1.19,1.19,0,0,0,1.31-1.12c0-.47-.15-.92-1-1.56l-.45-.35a2.9,2.9,0,0,1-1.44-2.31c0-1.07.89-1.84,2.25-1.84a4.8,4.8,0,0,1,1.3.16c.09,0,.13,0,.13.12s0,.41,0,1.17c0,.22,0,.29-.1.29s-.1-.06-.1-.17a1.23,1.23,0,0,0-.25-.65,1.26,1.26,0,0,0-1.07-.47,1,1,0,0,0-1.16,1c0,.45.23.79,1,1.41l.27.2c1.18.89,1.6,1.56,1.6,2.49a2,2,0,0,1-.92,1.7,2.82,2.82,0,0,1-1.55.39A3.31,3.31,0,0,1,89.71,54.08Z" transform="translate(-6.5 -1.95)"/><path class="cls-2" d="M100.93,49.93s0,0,0-.07v-.21c0-1.48,0-1.75,0-2.07s-.09-.48-.41-.55a2.06,2.06,0,0,0-.39,0c-.1,0-.16,0-.16-.09s.07-.09.2-.09c.53,0,1.14,0,1.41,0l1.23,0c.13,0,.2,0,.2.09s-.06.09-.17.09l-.29,0c-.26,0-.34.21-.36.55s0,.59,0,2.07v1.72c0,.9,0,1.67,0,2.09,0,.27.09.48.38.52a4,4,0,0,0,.5,0c.11,0,.16,0,.16.08s-.08.1-.2.1c-.63,0-1.25,0-1.52,0l-1.22,0c-.14,0-.2,0-.2-.1s0-.08.15-.08a1.53,1.53,0,0,0,.35,0c.2,0,.25-.25.29-.53s0-1.18,0-2.08v-.86a.06.06,0,0,0,0-.06H97.2a.05.05,0,0,0-.06.06v.86c0,.9,0,1.67,0,2.09,0,.27.09.48.38.52a4,4,0,0,0,.5,0c.1,0,.15,0,.15.08s-.07.1-.19.1c-.64,0-1.25,0-1.52,0l-1.23,0c-.13,0-.2,0-.2-.1s0-.08.16-.08a1.53,1.53,0,0,0,.35,0c.2,0,.24-.25.28-.53s0-1.18,0-2.08V49.65c0-1.48,0-1.75,0-2.07s-.1-.48-.42-.55a1.94,1.94,0,0,0-.38,0c-.1,0-.16,0-.16-.09s.06-.09.2-.09c.53,0,1.14,0,1.41,0l1.22,0c.14,0,.21,0,.21.09s-.06.09-.18.09l-.28,0c-.26,0-.34.21-.36.55s0,.59,0,2.07v.21s0,.07.06.07Z" transform="translate(-6.5 -1.95)"/><path class="cls-2" d="M105.79,51.65s-.06,0-.08.08l-.53,1.4a1.79,1.79,0,0,0-.15.59c0,.18.09.3.39.3h.15c.12,0,.15,0,.15.08s-.06.1-.17.1l-1,0c-.11,0-.65,0-1.15,0-.13,0-.19,0-.19-.1s0-.08.12-.08l.3,0c.45-.06.63-.39.83-.87L106.88,47c.11-.28.17-.39.27-.39s.15.09.24.31c.24.54,1.8,4.52,2.42,6,.37.88.66,1,.86,1.06a2.1,2.1,0,0,0,.41,0c.08,0,.13,0,.13.08s-.09.1-.45.1-1.06,0-1.84,0c-.18,0-.3,0-.3-.08s0-.08.14-.09a.15.15,0,0,0,.09-.22l-.78-2.07a.1.1,0,0,0-.1-.07Zm2-.49s.06,0,0,0L107,48.7s0-.09,0-.09,0,0-.06.09l-.9,2.4s0,.06,0,.06Z" transform="translate(-6.5 -1.95)"/><path class="cls-2" d="M112.23,49.65c0-1.48,0-1.75,0-2.07s-.09-.48-.41-.55a2.06,2.06,0,0,0-.39,0c-.1,0-.16,0-.16-.09s.07-.09.21-.09h.79l.62,0h2.44l.42-.06.15,0c.05,0,.06,0,.06.08a6.42,6.42,0,0,0-.08.64c0,.1,0,.52,0,.64s0,.11-.09.11-.09,0-.09-.14a1,1,0,0,0-.06-.35c-.07-.17-.17-.29-.65-.35-.17,0-1.19,0-1.39,0,0,0-.07,0-.07.1v2.47c0,.06,0,.1.07.1.22,0,1.34,0,1.56,0s.38,0,.47-.14.11-.13.16-.13.06,0,.06.08,0,.21-.07.71c0,.2,0,.59,0,.65s0,.19-.09.19a.08.08,0,0,1-.09-.09,2.5,2.5,0,0,0,0-.35c0-.19-.18-.34-.54-.38-.19,0-1.15,0-1.39,0,0,0-.06,0-.06.1v.77c0,.33,0,1.23,0,1.51,0,.67.18.82,1.17.82a2.41,2.41,0,0,0,.92-.12c.25-.11.37-.32.44-.72,0-.11,0-.14.11-.14s.07.07.07.17a7.28,7.28,0,0,1-.12,1.08c-.07.26-.16.26-.53.26-.73,0-1.27,0-1.69,0l-1,0h-.56l-.67,0c-.13,0-.19,0-.19-.1s0-.08.15-.08a1.53,1.53,0,0,0,.35,0c.2,0,.25-.25.29-.53s0-1.18,0-2.08Z" transform="translate(-6.5 -1.95)"/><path class="cls-2" d="M119.62,51.37c0,1.25,0,1.92.2,2.1s.42.21,1.18.21c.52,0,.9,0,1.15-.27a1.31,1.31,0,0,0,.25-.59c0-.08,0-.14.11-.14s.07,0,.07.16a7.19,7.19,0,0,1-.14,1.12c-.06.22-.11.27-.62.27-.7,0-1.21,0-1.64,0s-.79,0-1.19,0h-.56l-.67,0c-.13,0-.2,0-.2-.1s0-.08.16-.08a1.61,1.61,0,0,0,.35,0c.19,0,.24-.25.28-.53s.05-1.18.05-2.08V49.65c0-1.48,0-1.75,0-2.07s-.1-.48-.42-.55a1.39,1.39,0,0,0-.32,0c-.11,0-.17,0-.17-.09s.07-.09.22-.09c.46,0,1.07,0,1.33,0l1.33,0c.14,0,.21,0,.21.09s-.06.09-.18.09a2.53,2.53,0,0,0-.38,0c-.26,0-.34.21-.36.55s0,.59,0,2.07Z" transform="translate(-6.5 -1.95)"/><path class="cls-2" d="M127.62,51.65c-.05,0-.07,0-.09.08l-.52,1.4a1.79,1.79,0,0,0-.15.59c0,.18.09.3.39.3h.15c.11,0,.14,0,.14.08s-.06.1-.16.1l-1,0c-.11,0-.64,0-1.15,0-.13,0-.18,0-.18-.1s0-.08.11-.08l.3,0c.45-.06.64-.39.83-.87L128.7,47c.12-.28.18-.39.28-.39s.14.09.24.31c.23.54,1.79,4.52,2.42,6,.37.88.65,1,.86,1.06a2,2,0,0,0,.41,0c.07,0,.12,0,.12.08s-.08.1-.45.1-1.06,0-1.84,0c-.17,0-.29,0-.29-.08s0-.08.13-.09a.15.15,0,0,0,.09-.22l-.78-2.07a.1.1,0,0,0-.1-.07Zm2-.49s.06,0,0,0l-.88-2.41s0-.09-.05-.09,0,0-.06.09l-.89,2.4s0,.06,0,.06Z" transform="translate(-6.5 -1.95)"/><path class="cls-2" d="M135.28,51.37c0,1.25,0,1.92.2,2.1s.42.21,1.18.21c.52,0,.9,0,1.14-.27a1.22,1.22,0,0,0,.26-.59c0-.08,0-.14.11-.14s.07,0,.07.16A7.19,7.19,0,0,1,138.1,54c-.06.22-.11.27-.62.27-.7,0-1.21,0-1.65,0s-.79,0-1.19,0h-.55l-.68,0c-.12,0-.19,0-.19-.1s0-.08.16-.08a1.61,1.61,0,0,0,.35,0c.19,0,.24-.25.28-.53s.05-1.18.05-2.08V49.65c0-1.48,0-1.75,0-2.07s-.1-.48-.42-.55a1.45,1.45,0,0,0-.32,0c-.11,0-.17,0-.17-.09s.07-.09.22-.09c.46,0,1.07,0,1.33,0l1.33,0c.14,0,.2,0,.2.09s-.05.09-.17.09a2.53,2.53,0,0,0-.38,0c-.26,0-.34.21-.36.55s0,.59,0,2.07Z" transform="translate(-6.5 -1.95)"/><path class="cls-2" d="M139.43,54.08c-.16-.07-.19-.12-.19-.33,0-.54,0-1.12,0-1.28s0-.25.12-.25.09.09.09.16a2,2,0,0,0,.09.5,1.36,1.36,0,0,0,1.4,1,1.19,1.19,0,0,0,1.3-1.12c0-.47-.14-.92-.95-1.56l-.45-.35c-1.07-.84-1.45-1.52-1.45-2.31,0-1.07.9-1.84,2.26-1.84a4.8,4.8,0,0,1,1.3.16c.08,0,.13,0,.13.12s0,.41,0,1.17c0,.22,0,.29-.1.29s-.1-.06-.1-.17a1.19,1.19,0,0,0-.26-.65,1.22,1.22,0,0,0-1.06-.47,1,1,0,0,0-1.16,1c0,.45.22.79,1,1.41l.28.2c1.18.89,1.6,1.56,1.6,2.49a2,2,0,0,1-.92,1.7,2.82,2.82,0,0,1-1.55.39A3.25,3.25,0,0,1,139.43,54.08Z" transform="translate(-6.5 -1.95)"/><path class="cls-2" d="M145.22,49.65c0-1.48,0-1.75,0-2.07s-.1-.48-.42-.55a1.94,1.94,0,0,0-.38,0c-.11,0-.17,0-.17-.09s.07-.09.22-.09c.52,0,1.13,0,1.42,0l1.2,0c.15,0,.22,0,.22.09s-.06.09-.16.09a1.41,1.41,0,0,0-.28,0c-.26,0-.34.21-.36.55s0,.59,0,2.07V51c0,1.41.28,2,.76,2.4a1.82,1.82,0,0,0,1.22.4,1.9,1.9,0,0,0,1.34-.53,3.34,3.34,0,0,0,.57-2.42V49.65c0-1.48,0-1.75,0-2.07s-.1-.48-.42-.55a1.83,1.83,0,0,0-.35,0c-.11,0-.17,0-.17-.09s.07-.09.21-.09c.5,0,1.11,0,1.12,0s.73,0,1.11,0c.14,0,.21,0,.21.09s-.06.09-.18.09a1.49,1.49,0,0,0-.28,0c-.26,0-.34.21-.36.55s0,.59,0,2.07V50.7a3.68,3.68,0,0,1-.93,2.93,2.87,2.87,0,0,1-2,.7,3.1,3.1,0,0,1-2.16-.67,3.19,3.19,0,0,1-.87-2.58Z" transform="translate(-6.5 -1.95)"/><path class="cls-2" d="M155.17,51.37c0,1.25,0,1.92.21,2.1s.42.21,1.18.21c.51,0,.89,0,1.14-.27a1.21,1.21,0,0,0,.25-.59c0-.08,0-.14.11-.14s.08,0,.08.16A7.41,7.41,0,0,1,158,54c-.06.22-.11.27-.61.27-.71,0-1.21,0-1.65,0s-.79,0-1.19,0H154l-.67,0c-.13,0-.2,0-.2-.1s0-.08.16-.08a1.53,1.53,0,0,0,.35,0c.2,0,.24-.25.28-.53s0-1.18,0-2.08V49.65c0-1.48,0-1.75,0-2.07s-.1-.48-.42-.55a1.33,1.33,0,0,0-.32,0c-.11,0-.16,0-.16-.09s.06-.09.21-.09c.46,0,1.07,0,1.34,0l1.32,0c.14,0,.21,0,.21.09s-.06.09-.18.09a2.64,2.64,0,0,0-.38,0c-.26,0-.34.21-.36.55s0,.59,0,2.07Z" transform="translate(-6.5 -1.95)"/><path class="cls-2" d="M160.44,51.65c-.05,0-.07,0-.09.08l-.52,1.4a1.79,1.79,0,0,0-.15.59c0,.18.09.3.39.3h.15c.11,0,.14,0,.14.08s-.06.1-.16.1l-1,0c-.11,0-.64,0-1.15,0-.13,0-.18,0-.18-.1s0-.08.11-.08l.3,0c.45-.06.64-.39.83-.87L161.52,47c.12-.28.18-.39.28-.39s.14.09.24.31c.23.54,1.79,4.52,2.42,6,.37.88.65,1,.86,1.06a2,2,0,0,0,.41,0c.07,0,.12,0,.12.08s-.08.1-.45.1-1.06,0-1.84,0c-.17,0-.29,0-.29-.08s0-.08.13-.09a.15.15,0,0,0,.09-.22l-.78-2.07a.1.1,0,0,0-.1-.07Zm2-.49s.06,0,0,0l-.88-2.41s0-.09,0-.09-.05,0-.06.09l-.89,2.4s0,.06,0,.06Z" transform="translate(-6.5 -1.95)"/><path class="cls-2" d="M166.88,49.65c0-1.48,0-1.75,0-2.07s-.12-.49-.33-.54a1.39,1.39,0,0,0-.35,0c-.1,0-.16,0-.16-.1s.08-.08.23-.08l1.27,0,1.19,0c.13,0,.21,0,.21.08s-.06.1-.16.1a1.59,1.59,0,0,0-.29,0c-.26,0-.34.21-.36.55s0,.59,0,2.07v1.72c0,1,0,1.72,0,2.14,0,.26.1.43.39.47a3.9,3.9,0,0,0,.5,0c.1,0,.15,0,.15.08s-.08.1-.18.1c-.65,0-1.26,0-1.53,0l-1.23,0c-.12,0-.19,0-.19-.1s0-.08.16-.08a1.61,1.61,0,0,0,.35,0c.19,0,.25-.2.28-.48s0-1.18,0-2.13Z" transform="translate(-6.5 -1.95)"/><path class="cls-2" d="M172.59,47.37l-1.46,0c-.56,0-.8.07-.94.28A1.29,1.29,0,0,0,170,48c0,.08-.05.12-.11.12s-.08,0-.08-.16.18-1,.2-1.12.06-.18.12-.18a2.43,2.43,0,0,0,.42.11c.28,0,.65.05,1,.05h3.87a4.58,4.58,0,0,0,.67-.05l.26,0c.07,0,.08.05.08.2s0,.88,0,1.13c0,.1,0,.16-.09.16s-.09,0-.1-.2V48c0-.26-.29-.53-1.16-.55l-1.22,0v4c0,.9,0,1.67,0,2.09,0,.27.09.48.38.52a4.21,4.21,0,0,0,.5,0c.11,0,.16,0,.16.08s-.08.1-.19.1c-.64,0-1.26,0-1.53,0l-1.23,0c-.12,0-.19,0-.19-.1s0-.08.15-.08a1.46,1.46,0,0,0,.35,0c.2,0,.26-.25.29-.53s.05-1.18.05-2.08Z" transform="translate(-6.5 -1.95)"/><path class="cls-2" d="M178.22,49.65c0-1.48,0-1.75,0-2.07s-.12-.49-.34-.54a1.29,1.29,0,0,0-.35,0c-.09,0-.15,0-.15-.1s.08-.08.23-.08l1.27,0,1.19,0c.13,0,.2,0,.2.08s-.05.1-.15.1a1.5,1.5,0,0,0-.29,0c-.27,0-.35.21-.37.55s0,.59,0,2.07v1.72c0,1,0,1.72,0,2.14,0,.26.1.43.39.47a4.21,4.21,0,0,0,.5,0c.11,0,.16,0,.16.08s-.08.1-.19.1c-.64,0-1.26,0-1.52,0l-1.23,0c-.12,0-.19,0-.19-.1s0-.08.15-.08a1.46,1.46,0,0,0,.35,0c.2,0,.26-.2.29-.48s.05-1.18.05-2.13Z" transform="translate(-6.5 -1.95)"/><path class="cls-2" d="M186.77,51.37c0,1.25,0,1.92.21,2.1s.42.21,1.18.21c.51,0,.89,0,1.14-.27a1.21,1.21,0,0,0,.25-.59c0-.08,0-.14.11-.14s.08,0,.08.16a7.41,7.41,0,0,1-.15,1.12c-.06.22-.11.27-.61.27-.71,0-1.21,0-1.65,0s-.79,0-1.19,0h-.56l-.67,0c-.13,0-.2,0-.2-.1s0-.08.16-.08a1.53,1.53,0,0,0,.35,0c.2,0,.24-.25.28-.53s.05-1.18.05-2.08V49.65c0-1.48,0-1.75,0-2.07s-.09-.48-.42-.55a1.33,1.33,0,0,0-.32,0c-.11,0-.16,0-.16-.09s.06-.09.21-.09c.46,0,1.07,0,1.34,0l1.32,0c.14,0,.21,0,.21.09s-.06.09-.18.09a2.64,2.64,0,0,0-.38,0c-.26,0-.34.21-.36.55s0,.59,0,2.07Z" transform="translate(-6.5 -1.95)"/><path class="cls-2" d="M192,51.65s-.07,0-.09.08l-.52,1.4a1.79,1.79,0,0,0-.15.59c0,.18.09.3.39.3h.15c.11,0,.14,0,.14.08s-.06.1-.16.1l-1,0c-.1,0-.64,0-1.15,0-.13,0-.18,0-.18-.1s0-.08.11-.08l.31,0c.44-.06.63-.39.82-.87L193.12,47c.12-.28.18-.39.28-.39s.14.09.24.31c.23.54,1.8,4.52,2.42,6,.37.88.65,1,.86,1.06a2,2,0,0,0,.41,0c.08,0,.12,0,.12.08s-.08.1-.44.1-1.07,0-1.85,0c-.17,0-.29,0-.29-.08s0-.08.14-.09a.16.16,0,0,0,.08-.22l-.78-2.07a.09.09,0,0,0-.09-.07Zm2-.49c.05,0,.06,0,.05,0l-.88-2.41s0-.09,0-.09-.05,0-.06.09l-.89,2.4s0,.06,0,.06Z" transform="translate(-6.5 -1.95)"/><path class="cls-2" d="M197.17,47.78a1.3,1.3,0,0,0-.36-.69.85.85,0,0,0-.39-.09c-.1,0-.15,0-.15-.09s.07-.09.21-.09c.51,0,1,0,1.13,0s.52,0,1.08,0q.21,0,.21.09c0,.08-.08.09-.18.09a.51.51,0,0,0-.24,0c-.09,0-.11.11-.11.21a6.2,6.2,0,0,0,.22.9c.16.64,1.07,3.6,1.25,4.15h0l1.9-5.09c.09-.27.16-.35.24-.35s.16.15.28.46l2,4.91h0c.18-.66,1-3.23,1.3-4.37a2.07,2.07,0,0,0,.1-.57c0-.15-.09-.29-.47-.29-.1,0-.17,0-.17-.09s.08-.09.23-.09c.51,0,.92,0,1,0s.49,0,.81,0c.11,0,.18,0,.18.08s-.05.1-.14.1a1,1,0,0,0-.34,0c-.24.09-.34.48-.55,1-.45,1.23-1.47,4.33-2,5.8-.11.34-.15.45-.28.45s-.16-.11-.3-.47l-2-4.89h0c-.19.5-1.48,4-1.9,4.85-.19.4-.24.51-.36.51s-.13-.1-.22-.36Z" transform="translate(-6.5 -1.95)"/><path class="cls-2" d="M212.78,51.37c0,.94,0,1.67.05,2.08s.09.49.38.53a4,4,0,0,0,.49,0c.13,0,.16,0,.16.08s-.06.1-.21.1c-.61,0-1.23,0-1.48,0l-1.24,0c-.14,0-.21,0-.21-.1s0-.08.15-.08a1.53,1.53,0,0,0,.35,0c.2,0,.25-.25.28-.53s.05-1.14.05-2.08V49.65c0-1.48,0-1.75,0-2.07s-.09-.48-.42-.55a1.87,1.87,0,0,0-.38,0c-.09,0-.16,0-.16-.08s.08-.1.22-.1h.79l.62,0h2.57a1.82,1.82,0,0,0,.4,0,.58.58,0,0,1,.16,0,.07.07,0,0,1,.07.08c0,.07-.05.19-.08.44,0,.1,0,.68,0,.79s0,.14-.1.14-.09-.05-.1-.16a1.14,1.14,0,0,0,0-.37.74.74,0,0,0-.65-.29l-1.5,0c-.06,0-.09,0-.09.14v2.44s0,.08.07.08h1.69a.51.51,0,0,0,.42-.17c0-.06.07-.1.12-.1s.06,0,.06.09,0,.3-.08.6,0,.65,0,.72,0,.18-.1.18-.08-.07-.08-.14a1.11,1.11,0,0,0-.06-.3.58.58,0,0,0-.5-.35c-.24,0-1.27,0-1.44,0s-.07,0-.07.09Z" transform="translate(-6.5 -1.95)"/><path class="cls-2" d="M217.62,49.65c0-1.48,0-1.75,0-2.07s-.11-.49-.33-.54a1.34,1.34,0,0,0-.35,0c-.1,0-.16,0-.16-.1s.08-.08.24-.08l1.27,0,1.19,0c.12,0,.2,0,.2.08s-.06.1-.16.1l-.29,0c-.26,0-.34.21-.36.55s0,.59,0,2.07v1.72c0,1,0,1.72,0,2.14,0,.26.1.43.39.47a4,4,0,0,0,.5,0c.1,0,.15,0,.15.08s-.07.1-.18.1c-.65,0-1.26,0-1.52,0l-1.23,0c-.13,0-.2,0-.2-.1s0-.08.16-.08a1.53,1.53,0,0,0,.35,0c.2,0,.25-.2.28-.48s.05-1.18.05-2.13Z" transform="translate(-6.5 -1.95)"/><path class="cls-2" d="M222,49.65c0-1.48,0-1.75,0-2.07s-.1-.48-.42-.55a1.94,1.94,0,0,0-.38,0c-.11,0-.16,0-.16-.09s.06-.09.21-.09c.52,0,1.13,0,1.34,0l1.37,0a3.14,3.14,0,0,1,1.8.42,1.72,1.72,0,0,1,.66,1.34,2.71,2.71,0,0,1-1.29,2.18c.87,1.1,1.54,2,2.12,2.57a1.93,1.93,0,0,0,1.09.66l.28,0c.07,0,.11,0,.11.08s-.07.1-.18.1h-.93a1.91,1.91,0,0,1-1-.19,4.68,4.68,0,0,1-1.34-1.43c-.39-.54-.84-1.2-1-1.35a.18.18,0,0,0-.17-.07h-.85s-.08,0-.08.07v.14c0,.91,0,1.68,0,2.09s.09.49.38.53a4.43,4.43,0,0,0,.48,0c.08,0,.12,0,.12.08s-.07.1-.2.1c-.56,0-1.29,0-1.43,0l-1.19,0c-.13,0-.2,0-.2-.1s0-.08.16-.08a1.61,1.61,0,0,0,.35,0c.19,0,.24-.25.28-.53s.05-1.18.05-2.08Zm1.15.77c0,.11,0,.15.09.18a2.5,2.5,0,0,0,.74.1.94.94,0,0,0,.69-.17,1.69,1.69,0,0,0,.58-1.46,1.56,1.56,0,0,0-1.49-1.79,2.1,2.1,0,0,0-.52,0c-.07,0-.09.06-.09.14Z" transform="translate(-6.5 -1.95)"/><path class="cls-2" d="M229.76,46.86c0-.16.09-.25.16-.25s.14,0,.27.3l2.66,5.5,2.65-5.57c.08-.15.13-.23.22-.23s.14.1.17.3l.89,6c.09.61.19.9.48,1a2.13,2.13,0,0,0,.6.09c.09,0,.16,0,.16.07s-.12.11-.25.11-1.59,0-2-.06c-.23,0-.29,0-.29-.11s0-.08.11-.1.09-.15,0-.42l-.59-4.3h0l-2.13,4.43c-.23.46-.27.55-.36.55s-.19-.2-.34-.49c-.24-.45-1-1.94-1.13-2.21s-.67-1.44-1-2.17h0l-.51,3.88a3.93,3.93,0,0,0,0,.46c0,.19.13.28.3.31a1.79,1.79,0,0,0,.41.05c.08,0,.14,0,.14.07s-.08.11-.23.11c-.41,0-.85,0-1,0l-1,0c-.1,0-.18,0-.18-.11s.06-.07.16-.07a1.17,1.17,0,0,0,.29,0c.28-.05.35-.44.4-.77Z" transform="translate(-6.5 -1.95)"/><polygon class="cls-2" points="65.28 40.46 86.06 40.27 106.84 40.17 148.4 40.08 189.96 40.17 210.74 40.27 231.51 40.46 210.74 40.65 189.96 40.76 148.4 40.85 106.84 40.76 86.06 40.65 65.28 40.46"/><path class="cls-1" d="M179.16,29.16h4.78c0-.1,0-.2,0-.29,0-1.4,0-2.8,0-4.2a.84.84,0,0,0-.14-.43c-.25-.35-.52-.68-.79-1a.36.36,0,0,1,0-.54l1.76-1.6c.29.07.41.22.36.5a1.57,1.57,0,0,0,.69,1.65l.54.42c-.41.38-.74.67-1,1a.67.67,0,0,0-.18.43c0,1.06,0,2.12,0,3.18a6.85,6.85,0,0,1-.18,1.35c-.22.89-.47,1.77-.72,2.69h-3.74a1.51,1.51,0,0,1-1.64-1.19,1.72,1.72,0,0,0-.17-.4c-.08.28-.17.57-.25.86s-.17.59-.26.91c-1.07-.27-2.13-.53-3.18-.81a.43.43,0,0,0-.53.14,1.4,1.4,0,0,1-1.12.49h-1.89a.33.33,0,0,1-.36-.23c-.15-.35-.32-.68-.49-1-.14.23-.26.45-.4.65a1.42,1.42,0,0,1-1.18.61c-.84,0-1.68,0-2.52,0A1.84,1.84,0,0,1,164.81,31a7.06,7.06,0,0,1-.22-.69c-.1.22-.2.41-.29.62-.18.38-.37.75-.53,1.14a.31.31,0,0,1-.35.23h-2.1a1.91,1.91,0,0,1-1.93-1.36c-.07-.2-.12-.4-.19-.65a8,8,0,0,0-.53,1.17,1,1,0,0,1-1.32.85,9.07,9.07,0,0,0-1.38,0,2.64,2.64,0,0,1-1.95-.73l-.19.73h-12c-.16.83-.32,1.63-.48,2.43a.71.71,0,0,1-.18.3,6.53,6.53,0,0,1-5.5,2,4.51,4.51,0,0,1-2.57-1,3.93,3.93,0,0,1-1.4-2.66,7.81,7.81,0,0,1,.42-3.86c0-.13.08-.31.27-.19-.07.54-.17,1.05-.21,1.56a2.44,2.44,0,0,0,1.53,2.54,6.28,6.28,0,0,0,2.84.47,15,15,0,0,0,4-.59c.28-.09.54-.22.81-.33v-.12c-.58-.14-1.16-.28-1.73-.44a7.49,7.49,0,0,0-2.16-.18.43.43,0,0,1-.46-.56c.14-.76.31-1.52.44-2.29,0-.24.14-.28.35-.28H145a1.12,1.12,0,0,0,1-1c0-1.2,0-2.4,0-3.59a.94.94,0,0,0-.16-.46c-.22-.31-.47-.6-.7-.9s-.26-.45.07-.75l1.37-1.25c.27-.24.27-.24.61-.08,0,.32,0,.64,0,1a.65.65,0,0,0,.23.58c.32.29.63.6,1,.92-.36.33-.67.63-1,.91a.49.49,0,0,0-.22.46,4.1,4.1,0,0,1-.57,2.69.28.28,0,0,0,0,.24l.25-.23a22.68,22.68,0,0,1,3.57-2.66,2.49,2.49,0,0,1,3.05.27,3.38,3.38,0,0,1,1.26,3.36c0,.15-.06.31-.09.48h4.65l.57-2.05c0-.15.1-.3.14-.46s.15-.21.33-.13v1.36a3.63,3.63,0,0,0,0,.57c.07.47.28.7.74.71,1.13,0,2.26,0,3.41,0,0-.11,0-.21,0-.3,0-1.39,0-2.78,0-4.17a.88.88,0,0,0-.16-.46c-.24-.34-.5-.67-.77-1a.39.39,0,0,1,.06-.6l1.6-1.45a.27.27,0,0,1,.24-.05.43.43,0,0,1,.22.26,3.38,3.38,0,0,1,0,.78.66.66,0,0,0,.25.6l1,.87c-.41.38-.74.67-1,1a.59.59,0,0,0-.18.37c0,1,0,2,0,3a2.55,2.55,0,0,0,0,.39c.08.49.29.71.79.72.93,0,1.86,0,2.79,0a1,1,0,0,0,1-.84c.16-.54.28-1.1.4-1.65,0-.18.12-.24.32-.17v2.64c.91,0,1.84,0,2.76,0a.93.93,0,0,0,.85-.74c.17-.57.3-1.14.43-1.71,0-.18.1-.28.33-.18v2l3.34.82-1.62-2.16c.41-.52.82-1,1.24-1.54.16-.2.26-.1.34.09a6,6,0,0,1,.5,3.15A1.91,1.91,0,0,0,179.16,29.16ZM146,29.1l0,.06h8.29a4.36,4.36,0,0,0-.28-.68,3.4,3.4,0,0,0-3.07-1.32,16,16,0,0,0-3.86,1.32C146.69,28.67,146.33,28.89,146,29.1Z" transform="translate(-6.5 -1.95)"/><path class="cls-1" d="M125.85,32.29c-1.42,0-2.83,0-4.24,0A1.78,1.78,0,0,1,120,31c-.09-.21-.14-.44-.22-.69l-.17.35c-.23.49-.45,1-.69,1.46a.36.36,0,0,1-.26.17H115a.43.43,0,0,1-.29-.19,7.09,7.09,0,0,1-.35-.68c-.07.1-.13.17-.18.25-.33.48-.67,1-1,1.46a.33.33,0,0,1-.52.13c-.88-.54-1.76-1.07-2.6-1.65a11.32,11.32,0,0,1-1.09-1c-.22.46-.46,1-.69,1.46a.31.31,0,0,1-.36.23h-1.22a2.46,2.46,0,0,1-2.62-2.5c0-.16,0-.32,0-.5l-.24,0a3.33,3.33,0,0,0-2.42,2.56.46.46,0,0,1-.54.41c-2.67,0-5.33,0-8,0h-.41V32c0-2.84,0-5.67,0-8.51a1.13,1.13,0,0,1,.12-.51c.27-.57.56-1.13.84-1.69a1.1,1.1,0,0,1,.2-.23l.08,0v8.11h1.41c1.8,0,3.59,0,5.39,0,.89,0,1.77-.17,2.65-.27a1.82,1.82,0,0,0,.29-.08s0,0,0,0c-1.55-.6-3.09-1.2-4.64-1.78a5.38,5.38,0,0,0-.9-.22,1.3,1.3,0,0,0-1.29.46c0,.05-.11.08-.23.18a1.8,1.8,0,0,1,0-.3c.12-.4.24-.81.38-1.2a1.74,1.74,0,0,1,2.33-1.23,12.92,12.92,0,0,1,1.76.66,18.53,18.53,0,0,0,3.45,1.34,10.11,10.11,0,0,0,1.36.17c.3,0,.45.18.39.48-.13.6-.27,1.21-.41,1.83h3c0-.19.09-.4.16-.59a2.19,2.19,0,0,1,.85-1q1.61-1.17,3.21-2.31c.33-.24.46-.2.64.17l1.8,3.58a.48.48,0,0,0,.27.22h4.14c0-.11,0-.22,0-.32q0-2.07,0-4.14a.88.88,0,0,0-.16-.46c-.24-.34-.5-.67-.76-1a.38.38,0,0,1,0-.6c.55-.49,1.08-1,1.63-1.46a.23.23,0,0,1,.22,0c.1.06.22.15.23.25,0,.29,0,.6,0,.89a.67.67,0,0,0,.15.4c.34.32.7.63,1.08,1-.42.39-.76.69-1.07,1a.52.52,0,0,0-.16.35q0,1.53,0,3.06a2.55,2.55,0,0,0,0,.39c.08.48.29.7.78.7,1.27,0,2.54,0,3.8,0,0,0,0,0,.07,0a1.81,1.81,0,0,0,0-.25c0-1.4,0-2.8,0-4.19a.85.85,0,0,0-.16-.46c-.24-.34-.51-.67-.76-1a.35.35,0,0,1,0-.53l1.75-1.61c.29.07.42.22.37.49a1.58,1.58,0,0,0,.68,1.66l.55.42c-.41.38-.74.67-1,1a.8.8,0,0,0-.19.43c0,1.19,0,2.38,0,3.57a2.32,2.32,0,0,1-.07.59c-.25.94-.51,1.89-.77,2.83C125.9,32.14,125.87,32.21,125.85,32.29ZM109.74,28,114,30.75l0-.05-1.85-3.76Z" transform="translate(-6.5 -1.95)"/><path class="cls-1" d="M227.92,30.71l-.51,1.77-2.47-.63-.26-.07c-.44-.14-.84-.25-1.22.21a1.27,1.27,0,0,1-.84.29c-.65,0-1.3,0-2,0a.3.3,0,0,1-.32-.2c-.16-.35-.34-.7-.51-1.06a6.34,6.34,0,0,1-.42.67,1.36,1.36,0,0,1-1.13.58h-4.61l-.12,0V32c0-2.85,0-5.69,0-8.54a1.13,1.13,0,0,1,.11-.48c.27-.57.56-1.13.85-1.69a2.23,2.23,0,0,1,.19-.24l.09,0v8c.05,0,.06.06.08.06h3.57a1,1,0,0,0,1-.81c.17-.56.29-1.12.42-1.69,0-.18.11-.23.31-.16v2.64l.19,0h2.25a1.06,1.06,0,0,0,1.21-.85c.17-.53.27-1.08.39-1.63,0-.17.11-.27.33-.17v2l3.33.81-1.61-2.15c.42-.52.82-1,1.24-1.55.17-.2.27-.08.34.1a6.12,6.12,0,0,1,.5,3.16,2.06,2.06,0,0,0,0,.25h3.14a.37.37,0,0,0,.37-.22c.48-.9,1-1.8,1.48-2.67a4.42,4.42,0,0,1,.83-1.05,1.48,1.48,0,0,1,2.15.05,4.74,4.74,0,0,1,1,1.55c.2.46.36.93.55,1.39a1.41,1.41,0,0,1,0,1.22q-.66,1.35-1.35,2.7a.52.52,0,0,1-.66.24l-4.33-1.28c-.24-.08-.4-.07-.49.19l-.07.12c-.18.29-.3.71-.55.83a2,2,0,0,1-1.09,0A1.54,1.54,0,0,1,228.06,31c0-.09-.06-.19-.08-.28Zm9.51-.95c-.15-.29-.24-.5-.36-.7a4.51,4.51,0,0,0-1.86-1.86,1.72,1.72,0,0,0-2.4,1.2Z" transform="translate(-6.5 -1.95)"/><path class="cls-1" d="M194.46,29c-.08.42-.17.8-.22,1.2a2,2,0,0,0,1.26,2.2,5.47,5.47,0,0,0,2.5.34,5.76,5.76,0,0,0,2.56-.66.54.54,0,0,0,.32-.53c0-2.69,0-5.38,0-8.06a1.56,1.56,0,0,1,.15-.6c.26-.55.54-1.09.82-1.63A1.1,1.1,0,0,1,202,21l.1,0v8.08h3.36a10.38,10.38,0,0,1-.21-1.22,3.45,3.45,0,0,1,2.54-3.52,3,3,0,0,1,3.51,2.41c0,.23-.11.32-.39.26a18.52,18.52,0,0,0-2-.38,4,4,0,0,0-3,.68l-.16.14-.2.21a4.74,4.74,0,0,0,.67.61c.53.3,1.08.55,1.63.8a.91.91,0,0,0,.33,0h3.47a2.1,2.1,0,0,1,.53.16c-.46,1-.89,1.91-1.34,2.83,0,.07-.2.12-.31.12h-7.37c-.53,0-1.06,0-1.59,0a.29.29,0,0,0-.32.23c-.25.73-.52,1.47-.78,2.2a.59.59,0,0,1-.17.26,4.85,4.85,0,0,1-4.57.55,3.39,3.39,0,0,1-2.11-2.87,7.06,7.06,0,0,1,.48-3.49C194.22,29,194.3,28.94,194.46,29Z" transform="translate(-6.5 -1.95)"/><path class="cls-1" d="M80,32.3V32c0-2.84,0-5.67,0-8.51a1.27,1.27,0,0,1,.12-.51c.27-.57.56-1.13.85-1.68a.87.87,0,0,1,.2-.23l.08,0v8.11h1.46c.52,0,1,0,1.56,0a.44.44,0,0,0,.47-.27c.47-.88.94-1.77,1.46-2.64a4.4,4.4,0,0,1,.86-1.06,1.46,1.46,0,0,1,2.06,0,4.35,4.35,0,0,1,1.06,1.61c.2.46.36.93.55,1.39a1.38,1.38,0,0,1,0,1.16c-.45.92-.9,1.85-1.38,2.76a.5.5,0,0,1-.64.23c-1.43-.43-2.87-.84-4.29-1.28-.28-.09-.44-.07-.56.21a8,8,0,0,1-.47.8c0,.07-.14.16-.22.16Zm10.26-2.54a5.22,5.22,0,0,0-2.1-2.51,1.74,1.74,0,0,0-2.53,1.14Z" transform="translate(-6.5 -1.95)"/><path class="cls-1" d="M75.05,32.5a3.1,3.1,0,0,1-3.11-2,3.24,3.24,0,0,1,.61-3.05c.35-.46.79-.86,1.18-1.31a1.34,1.34,0,0,0,.14-.32,2.56,2.56,0,0,1,.2-.57c.21-.29.46-.53.69-.79a.37.37,0,0,1,.53-.09,9.7,9.7,0,0,1,2.24,2.19,4.61,4.61,0,0,1,.82,3A3.13,3.13,0,0,1,75.05,32.5Zm3-3.37C78,29,78,29,77.93,29c-1-.71-2-1.42-3-2.12a.29.29,0,0,0-.24,0c-.51.26-1,.52-1.54.8a2.65,2.65,0,0,0-.54.41c-.35.33-.31.62.12.85a3.23,3.23,0,0,0,.59.22,11.74,11.74,0,0,0,4,.14A6.38,6.38,0,0,0,78.08,29.13Z" transform="translate(-6.5 -1.95)"/><path class="cls-1" d="M187.31,32.88v-.33c0-3,0-6.07,0-9.11a1.3,1.3,0,0,1,.13-.54c.26-.56.54-1.11.82-1.66a1.58,1.58,0,0,1,.22-.23l.08,0v8.51a1.54,1.54,0,0,1-.09.52c-.3.87-.6,1.73-.92,2.6a1.06,1.06,0,0,1-.16.23Z" transform="translate(-6.5 -1.95)"/><path class="cls-1" d="M76.23,23.33l-1.11-1.11L74,23.33,72.71,22,74,20.74,75,21.82l1.15-1.14c.42.41.81.79,1.18,1.19a.36.36,0,0,1,0,.33C77,22.58,76.61,22.94,76.23,23.33Z" transform="translate(-6.5 -1.95)"/><path class="cls-1" d="M137.56,40.66l-1.07-1.15-1,1.1-1.32-1.32L135.39,38l1,1.08,1.11-1.16c.44.43.83.81,1.19,1.2a.33.33,0,0,1,0,.33C138.36,39.86,138,40.24,137.56,40.66Z" transform="translate(-6.5 -1.95)"/><path class="cls-1" d="M221.44,24l1.28-1.28,1,1.09,1.17-1.14c.42.41.81.78,1.18,1.18a.34.34,0,0,1,0,.31c-.37.39-.76.76-1.15,1.15l-1.1-1.11-1.08,1.12Z" transform="translate(-6.5 -1.95)"/><path class="cls-1" d="M156,35l1.27-1.28,1,1.1,1.18-1.14c.42.42.81.79,1.19,1.19a.34.34,0,0,1,0,.31c-.37.39-.75.76-1.14,1.14l-1.12-1.12-1.07,1.13Z" transform="translate(-6.5 -1.95)"/><path class="cls-1" d="M222.56,21.81l1.26-1.26c.37.37.76.74,1.12,1.13a.39.39,0,0,1,0,.35c-.35.39-.72.75-1.06,1.09Z" transform="translate(-6.5 -1.95)"/></svg>