<svg id="Layer_1" data-name="Layer 1" xmlns="http://www.w3.org/2000/svg" width="25.32" height="22.79" viewBox="0 0 25.32 22.79"><defs><style>.cls-1{fill:#808285;}.cls-2{fill:maroon;}</style></defs><polygon class="cls-1" points="0 12.69 8.43 21.12 8.43 21.12 8.43 21.12 8.49 21.19 8.56 21.12 8.56 21.12 8.56 21.12 10.67 19.01 0 8.34 0 12.69"/><polygon class="cls-2" points="12.64 12.69 0 0.05 0 4.4 10.46 14.86 12.64 17.04 14.82 14.87 25.32 4.36 25.32 0 12.64 12.69"/><polygon class="cls-1" points="6.19 22.79 0 22.79 0 16.61 6.19 22.79"/><polygon class="cls-2" points="15.19 22.8 22.24 15.74 22.24 22.8 25.32 22.8 25.32 8.31 10.83 22.8 15.19 22.8"/></svg>