<svg id="Layer_1" data-name="Layer 1" xmlns="http://www.w3.org/2000/svg" width="13.64" height="12.28" viewBox="0 0 13.64 12.28"><defs><style>.cls-1{fill:#808285;}.cls-2{fill:maroon;}</style></defs><polygon class="cls-1" points="0 6.84 4.54 11.38 4.54 11.38 4.54 11.38 4.58 11.42 4.61 11.38 4.61 11.38 4.61 11.38 5.75 10.24 0 4.5 0 6.84"/><polygon class="cls-2" points="6.81 6.84 0 0.03 0 2.37 5.64 8.01 6.81 9.18 7.98 8.01 13.64 2.35 13.64 0 6.81 6.84"/><polygon class="cls-1" points="3.33 12.28 0 12.28 0 8.95 3.33 12.28"/><polygon class="cls-2" points="8.18 12.28 11.98 8.48 11.98 12.28 13.64 12.28 13.64 4.48 5.83 12.28 8.18 12.28"/></svg>